<mxfile host="app.diagrams.net" modified="2024-01-29T15:46:57.529Z" agent="Mozilla/5.0 (Windows NT 10.0; Win64; x64) AppleWebKit/537.36 (KHTML, like Gecko) Chrome/118.0.0.0 YaBrowser/23.11.0.0 Safari/537.36" etag="3X_znwAcplXi-lppDhm1" version="23.0.2" type="device">
  <diagram name="Страница — 1" id="XaLlEFSk2q2oIWW5K_z8">
    <mxGraphModel dx="1958" dy="584" grid="1" gridSize="10" guides="1" tooltips="1" connect="1" arrows="1" fold="1" page="1" pageScale="1" pageWidth="827" pageHeight="1169" math="0" shadow="0">
      <root>
        <mxCell id="0" />
        <mxCell id="1" parent="0" />
        <mxCell id="xgOvIlCnabF9bArwfiSK-19" value="" style="rounded=0;whiteSpace=wrap;html=1;" vertex="1" parent="1">
          <mxGeometry x="-190" y="260" width="1060" height="410" as="geometry" />
        </mxCell>
        <mxCell id="xgOvIlCnabF9bArwfiSK-11" style="edgeStyle=orthogonalEdgeStyle;rounded=0;orthogonalLoop=1;jettySize=auto;html=1;entryX=0.5;entryY=0;entryDx=0;entryDy=0;" edge="1" parent="1" source="xgOvIlCnabF9bArwfiSK-1" target="xgOvIlCnabF9bArwfiSK-2">
          <mxGeometry relative="1" as="geometry" />
        </mxCell>
        <mxCell id="xgOvIlCnabF9bArwfiSK-12" style="edgeStyle=orthogonalEdgeStyle;rounded=0;orthogonalLoop=1;jettySize=auto;html=1;exitX=0.5;exitY=1;exitDx=0;exitDy=0;entryX=0.5;entryY=0;entryDx=0;entryDy=0;" edge="1" parent="1" source="xgOvIlCnabF9bArwfiSK-1" target="xgOvIlCnabF9bArwfiSK-3">
          <mxGeometry relative="1" as="geometry" />
        </mxCell>
        <mxCell id="xgOvIlCnabF9bArwfiSK-1" value="animals" style="rounded=1;whiteSpace=wrap;html=1;" vertex="1" parent="1">
          <mxGeometry x="280" y="320" width="120" height="60" as="geometry" />
        </mxCell>
        <mxCell id="xgOvIlCnabF9bArwfiSK-13" style="edgeStyle=orthogonalEdgeStyle;rounded=0;orthogonalLoop=1;jettySize=auto;html=1;exitX=0.5;exitY=1;exitDx=0;exitDy=0;entryX=0.5;entryY=0;entryDx=0;entryDy=0;" edge="1" parent="1" source="xgOvIlCnabF9bArwfiSK-2" target="xgOvIlCnabF9bArwfiSK-10">
          <mxGeometry relative="1" as="geometry" />
        </mxCell>
        <mxCell id="xgOvIlCnabF9bArwfiSK-14" style="edgeStyle=orthogonalEdgeStyle;rounded=0;orthogonalLoop=1;jettySize=auto;html=1;exitX=0.5;exitY=1;exitDx=0;exitDy=0;entryX=0.5;entryY=0;entryDx=0;entryDy=0;" edge="1" parent="1" source="xgOvIlCnabF9bArwfiSK-2" target="xgOvIlCnabF9bArwfiSK-8">
          <mxGeometry relative="1" as="geometry" />
        </mxCell>
        <mxCell id="xgOvIlCnabF9bArwfiSK-15" style="edgeStyle=orthogonalEdgeStyle;rounded=0;orthogonalLoop=1;jettySize=auto;html=1;exitX=0.5;exitY=1;exitDx=0;exitDy=0;entryX=0.5;entryY=0;entryDx=0;entryDy=0;" edge="1" parent="1" source="xgOvIlCnabF9bArwfiSK-2" target="xgOvIlCnabF9bArwfiSK-9">
          <mxGeometry relative="1" as="geometry" />
        </mxCell>
        <mxCell id="xgOvIlCnabF9bArwfiSK-2" value="pets" style="rounded=1;whiteSpace=wrap;html=1;" vertex="1" parent="1">
          <mxGeometry x="160" y="440" width="120" height="60" as="geometry" />
        </mxCell>
        <mxCell id="xgOvIlCnabF9bArwfiSK-16" style="edgeStyle=orthogonalEdgeStyle;rounded=0;orthogonalLoop=1;jettySize=auto;html=1;exitX=0.5;exitY=1;exitDx=0;exitDy=0;entryX=0.5;entryY=0;entryDx=0;entryDy=0;" edge="1" parent="1" source="xgOvIlCnabF9bArwfiSK-3" target="xgOvIlCnabF9bArwfiSK-7">
          <mxGeometry relative="1" as="geometry" />
        </mxCell>
        <mxCell id="xgOvIlCnabF9bArwfiSK-17" style="edgeStyle=orthogonalEdgeStyle;rounded=0;orthogonalLoop=1;jettySize=auto;html=1;exitX=0.5;exitY=1;exitDx=0;exitDy=0;entryX=0.5;entryY=0;entryDx=0;entryDy=0;" edge="1" parent="1" source="xgOvIlCnabF9bArwfiSK-3" target="xgOvIlCnabF9bArwfiSK-4">
          <mxGeometry relative="1" as="geometry" />
        </mxCell>
        <mxCell id="xgOvIlCnabF9bArwfiSK-18" style="edgeStyle=orthogonalEdgeStyle;rounded=0;orthogonalLoop=1;jettySize=auto;html=1;exitX=0.5;exitY=1;exitDx=0;exitDy=0;entryX=0.5;entryY=0;entryDx=0;entryDy=0;" edge="1" parent="1" source="xgOvIlCnabF9bArwfiSK-3" target="xgOvIlCnabF9bArwfiSK-6">
          <mxGeometry relative="1" as="geometry" />
        </mxCell>
        <mxCell id="xgOvIlCnabF9bArwfiSK-3" value="peck animals" style="rounded=1;whiteSpace=wrap;html=1;" vertex="1" parent="1">
          <mxGeometry x="400" y="440" width="120" height="60" as="geometry" />
        </mxCell>
        <mxCell id="xgOvIlCnabF9bArwfiSK-4" value="camel" style="rounded=1;whiteSpace=wrap;html=1;" vertex="1" parent="1">
          <mxGeometry x="540" y="560" width="120" height="60" as="geometry" />
        </mxCell>
        <mxCell id="xgOvIlCnabF9bArwfiSK-6" value="donkey" style="rounded=1;whiteSpace=wrap;html=1;" vertex="1" parent="1">
          <mxGeometry x="680" y="560" width="120" height="60" as="geometry" />
        </mxCell>
        <mxCell id="xgOvIlCnabF9bArwfiSK-7" value="horse" style="rounded=1;whiteSpace=wrap;html=1;" vertex="1" parent="1">
          <mxGeometry x="400" y="560" width="120" height="60" as="geometry" />
        </mxCell>
        <mxCell id="xgOvIlCnabF9bArwfiSK-8" value="cat" style="rounded=1;whiteSpace=wrap;html=1;" vertex="1" parent="1">
          <mxGeometry x="20" y="560" width="120" height="60" as="geometry" />
        </mxCell>
        <mxCell id="xgOvIlCnabF9bArwfiSK-9" value="hamster" style="rounded=1;whiteSpace=wrap;html=1;" vertex="1" parent="1">
          <mxGeometry x="160" y="560" width="120" height="60" as="geometry" />
        </mxCell>
        <mxCell id="xgOvIlCnabF9bArwfiSK-10" value="dog" style="rounded=1;whiteSpace=wrap;html=1;" vertex="1" parent="1">
          <mxGeometry x="-120" y="560" width="120" height="60" as="geometry" />
        </mxCell>
      </root>
    </mxGraphModel>
  </diagram>
</mxfile>
